PathFileType	4	(X/Y/Z)	C:/Users/rsk02/Documents/GitHub/TechForParalysis/Code/Model/04122019 - Marker Volunteer01/Rosti Data/New Session 109.trc	
DataRate	CameraRate	NumFrames	NumMarkers	Units	OrigDataRate	OrigDataStartFrame	OrigNumFrames	
100.00	100.00	20	14	mm	100.00	143	1141	
Frame#	Time	C7			PX			T8			IJ			SC			AC			AI			TS			AA			GH			LE			ME			US			RS			
		X1	Y1	Z1	X2	Y2	Z2	X3	Y3	Z3	X4	Y4	Z4	X5	Y5	Z5	X6	Y6	Z6	X7	Y7	Z7	X8	Y8	Z8	X9	Y9	Z9	X10	Y10	Z10	X11	Y11	Z11	X12	Y12	Z12	X13	Y13	Z13	X14	Y14	Z14	

143	1.420	693.81366	-7.14909	1538.51733	467.37335	-28.88774	1286.03577	767.78143	-6.80742	1325.53931	530.88861	-29.27113	1430.14404	534.74280	-4.55954	1438.83167	608.33435	138.35733	1480.95142	736.61322	70.54558	1462.84363	770.88281	72.33253	1343.70862	684.12860	186.47760	1444.67371	643.25269	198.63483	1453.80078	609.58453	264.33621	1160.64050	667.29663	193.79950	1127.66309	545.10474	288.68747	892.84314	507.92291	216.47878	893.56683 
144	1.430	693.84894	-7.18345	1538.52783	467.38260	-28.92700	1286.04553	767.79816	-6.82996	1325.54663	530.90961	-29.31580	1430.20654	534.75879	-4.59379	1438.85645	608.34985	138.33372	1480.97620	736.63715	70.50648	1462.85132	770.97137	72.33220	1343.72473	684.14294	186.44646	1444.67529	643.28534	198.61897	1453.82886	609.56653	264.31677	1160.65845	667.28870	193.78984	1127.67175	545.07336	288.67307	892.86481	507.83655	216.42087	893.59320 
145	1.440	693.87952	-7.21485	1538.53308	467.38892	-28.96521	1286.05664	767.81256	-6.84603	1325.54639	530.91907	-29.34528	1430.26501	534.76379	-4.62460	1438.87891	608.36224	138.30177	1480.99097	736.65948	70.47517	1462.86047	771.00806	72.32095	1343.73169	684.13831	186.39807	1444.66443	643.32947	198.62381	1453.86072	609.54840	264.28986	1160.67114	667.27338	193.77528	1127.67651	545.04480	288.67206	892.88165	507.77463	216.40654	893.60895 
146	1.450	693.90582	-7.24302	1538.52808	467.39346	-29.00255	1286.06750	767.82239	-6.85974	1325.53699	530.91803	-29.36327	1430.30261	534.75665	-4.65097	1438.88953	608.36707	138.25978	1480.98682	736.67285	70.45190	1462.85815	771.01093	72.30426	1343.73022	684.12463	186.34726	1444.64563	643.34778	198.62305	1453.86731	609.52698	264.25546	1160.67749	667.24786	193.75732	1127.67578	545.02264	288.70395	892.89453	507.73148	216.40941	893.60785 
147	1.460	693.92853	-7.26699	1538.51440	467.39786	-29.03976	1286.07654	767.82684	-6.87500	1325.52222	530.91437	-29.38036	1430.31934	534.75360	-4.68128	1438.88953	608.36377	138.21918	1480.97253	736.67700	70.42962	1462.84497	771.00464	72.28741	1343.72498	684.11523	186.31531	1444.62915	643.34369	198.60938	1453.85596	609.49286	264.21210	1160.67859	667.21167	193.73573	1127.66992	545.00879	288.77066	892.90454	507.69788	216.41266	893.59497 
148	1.470	693.95032	-7.28850	1538.49951	467.40320	-29.07755	1286.08374	767.82721	-6.89225	1325.50720	530.91840	-29.40755	1430.32715	534.76489	-4.71950	1438.88062	608.36029	138.19168	1480.96301	736.67810	70.40486	1462.83167	771.00226	72.26731	1343.72021	684.11896	186.30710	1444.62158	643.33600	198.59154	1453.84644	609.43530	264.15610	1160.67566	667.16895	193.70995	1127.66113	544.99683	288.84167	892.91144	507.66510	216.41080	893.57898 
149	1.480	693.97363	-7.31130	1538.49121	467.41000	-29.11608	1286.09021	767.82593	-6.90969	1325.49573	530.93347	-29.44783	1430.33508	534.78094	-4.76015	1438.86987	608.36163	138.17194	1480.96326	736.68030	70.38180	1462.82556	771.00189	72.23922	1343.71521	684.12860	186.30951	1444.62158	643.32959	198.57610	1453.84216	609.35132	264.08398	1160.67114	667.12592	193.67999	1127.65320	544.97516	288.87402	892.91412	507.63226	216.40303	893.56458 
150	1.490	693.99634	-7.33805	1538.49084	467.41824	-29.15508	1286.09741	767.82599	-6.92552	1325.48926	530.95685	-29.50049	1430.34363	534.79016	-4.79555	1438.87170	608.36475	138.14999	1480.97034	736.68549	70.36489	1462.82837	770.98804	72.20397	1343.70703	684.12933	186.29817	1444.62708	643.32104	198.56093	1453.83997	609.25385	263.99945	1160.67029	667.08704	193.64784	1127.64990	544.93958	288.85901	892.91534	507.60580	216.39252	893.55505 
151	1.500	694.01337	-7.36716	1538.49500	467.42795	-29.19447	1286.10608	767.83038	-6.93854	1325.48743	530.98248	-29.56187	1430.34888	534.79218	-4.82338	1438.88745	608.36169	138.12315	1480.97986	736.69269	70.34754	1462.83459	770.93909	72.16660	1343.69531	684.11371	186.26512	1444.63513	643.30756	198.54237	1453.83887	609.16864	263.91431	1160.67798	667.05322	193.61662	1127.65198	544.89441	288.81625	892.91968	507.59460	216.38831	893.55157 
152	1.510	694.01904	-7.39465	1538.49805	467.43906	-29.23410	1286.11536	767.83954	-6.94861	1325.48889	531.00427	-29.62272	1430.34900	534.79620	-4.85130	1438.90820	608.34686	138.08984	1480.98474	736.69391	70.32753	1462.83667	770.84094	72.13271	1343.68140	684.08704	186.22412	1444.63879	643.29108	198.52148	1453.84045	609.11163	263.84137	1160.69336	667.02350	193.58932	1127.65710	544.84503	288.76239	892.92584	507.60062	216.39818	893.55060 
153	1.520	694.01215	-7.41744	1538.49695	467.45065	-29.27380	1286.12390	767.85016	-6.95720	1325.49158	531.01422	-29.67016	1430.34448	534.80530	-4.88925	1438.91748	608.32391	138.05272	1480.98157	736.68103	70.30869	1462.83398	770.71033	72.10871	1343.66809	684.05371	186.19144	1444.63525	643.27490	198.50526	1453.84595	609.08008	263.79092	1160.71008	666.99701	193.56810	1127.66199	544.80103	288.71582	892.92865	507.61334	216.41844	893.54633 
154	1.530	693.99915	-7.43597	1538.49304	467.46088	-29.31328	1286.13135	767.85760	-6.96614	1325.49377	531.00580	-29.70538	1430.33533	534.81287	-4.93534	1438.90295	608.30035	138.02010	1480.97412	736.65381	70.29341	1462.82996	770.60834	72.10094	1343.66101	684.01312	186.17467	1444.62903	643.25830	198.49553	1453.85522	609.05969	263.76584	1160.72192	666.97333	193.55301	1127.66431	544.76953	288.68546	892.92523	507.61560	216.42819	893.53552 
155	1.540	693.98773	-7.45220	1538.49072	467.46771	-29.35217	1286.13794	767.85791	-6.97655	1325.49512	530.98340	-29.75071	1430.32361	534.81573	-4.97786	1438.87976	608.27863	137.99269	1480.96704	736.62170	70.28757	1462.82825	770.60382	72.11136	1343.66650	683.96814	186.16779	1444.62524	643.23315	198.48741	1453.87024	609.03223	263.75339	1160.72705	666.95062	193.54213	1127.66357	544.74725	288.66495	892.91791	507.60199	216.41794	893.52301 
156	1.550	693.98035	-7.46770	1538.49036	467.47006	-29.38995	1286.14404	767.85077	-6.98892	1325.49573	530.96112	-29.82274	1430.31482	534.81409	-5.01880	1438.87646	608.25812	137.96461	1480.96399	736.59912	70.28774	1462.83191	770.69763	72.13030	1343.68335	683.92706	186.16183	1444.62793	643.19275	198.47075	1453.88818	608.98859	263.73660	1160.72729	666.92676	193.53413	1127.66150	544.72498	288.64685	892.91364	507.59427	216.42133	893.52136 
157	1.560	693.97314	-7.48493	1538.49048	467.46817	-29.42611	1286.14978	767.83936	-7.00320	1325.49670	530.95209	-29.92104	1430.31189	534.80438	-5.05933	1438.89575	608.24023	137.93597	1480.96838	736.59241	70.28181	1462.83960	770.81866	72.14180	1343.70398	683.89374	186.14870	1444.63879	643.13397	198.42639	1453.90125	608.94000	263.72116	1160.72571	666.90216	193.52895	1127.66113	544.69556	288.62708	892.91718	507.60074	216.45149	893.53357 
158	1.570	693.96362	-7.50586	1538.49316	467.46405	-29.46042	1286.15466	767.82800	-7.01903	1325.49915	530.96033	-30.02538	1430.31433	534.78113	-5.08863	1438.92102	608.22168	137.90457	1480.98145	736.59589	70.26155	1462.84802	770.89551	72.13763	1343.72266	683.86255	186.12848	1444.65613	643.05078	198.33987	1453.89575	608.90680	263.72034	1160.72546	666.87982	193.52644	1127.66541	544.65753	288.60101	892.92676	507.60092	216.47330	893.55023 
159	1.580	693.95306	-7.52886	1538.50317	467.46057	-29.49313	1286.15808	767.82007	-7.03562	1325.50452	530.97656	-30.11027	1430.31628	534.74591	-5.10486	1438.94006	608.19397	137.86754	1480.99536	736.59875	70.22939	1462.85645	770.89789	72.11900	1343.73706	683.82880	186.10832	1444.67505	642.96014	198.23976	1453.87024	608.90186	263.73474	1160.72656	666.86206	193.52536	1127.67358	544.61499	288.56601	892.93726	507.57996	216.46385	893.56366 
160	1.590	693.94171	-7.54928	1538.52002	467.46021	-29.52498	1286.15979	767.81653	-7.05216	1325.51453	530.98547	-30.16599	1430.31018	534.71484	-5.12397	1438.94653	608.15552	137.82994	1481.00110	736.58929	70.19729	1462.86523	770.83643	72.09094	1343.74707	683.79572	186.08617	1444.68677	642.89526	198.17650	1453.84314	608.91711	263.75735	1160.72766	666.84912	193.52364	1127.68384	544.57355	288.52307	892.94507	507.54764	216.43504	893.57428 
161	1.600	693.93024	-7.56606	1538.53552	467.46426	-29.55748	1286.15918	767.81567	-7.06905	1325.52930	530.98236	-30.19736	1430.29919	534.70032	-5.15035	1438.93982	608.11304	137.79863	1480.99573	736.56372	70.17419	1462.87317	770.75018	72.05966	1343.75415	683.76398	186.05937	1444.68848	642.85535	198.15039	1453.82483	608.92780	263.77963	1160.72839	666.83893	193.51834	1127.69373	544.53796	288.47641	892.94891	507.51929	216.40805	893.58655 
162	1.610	693.91779	-7.58260	1538.54089	467.47250	-29.59295	1286.15588	767.81390	-7.08763	1325.54565	530.97583	-30.21822	1430.29333	534.69598	-5.17691	1438.92749	608.07599	137.77301	1480.98755	736.53192	70.16049	1462.87732	770.68964	72.03239	1343.76074	683.73120	186.02859	1444.68530	642.82843	198.14236	1453.82227	608.91595	263.79462	1160.73108	666.82837	193.50557	1127.70276	544.50928	288.42459	892.94769	507.49631	216.38354	893.60242 
